<svg width="1920" height="1080" viewBox="0 0 1920 1080" fill="none" xmlns="http://www.w3.org/2000/svg">
<g clip-path="url(#clip0_7_2)">
<rect width="1920" height="1080" fill="#121027"/>
<g filter="url(#filter0_f_7_2)">
<ellipse cx="742.997" cy="397.172" rx="373" ry="213" transform="rotate(24.8827 742.997 397.172)" fill="#FF0FFB"/>
</g>
<g filter="url(#filter1_f_7_2)">
<ellipse cx="1290.08" cy="776.593" rx="430.114" ry="221.517" transform="rotate(-37.5041 1290.08 776.593)" fill="#3EECFF"/>
</g>
<g style="mix-blend-mode:overlay" opacity="0.65">
<path d="M1084.51 600.055L1084.51 521.177C1084.51 516.771 1078.76 514.564 1075.4 517.676L984.922 601.506C982.839 603.436 979.455 603.436 977.372 601.506L844.596 478.491C841.229 475.372 835.48 477.578 835.48 481.992L835.48 600.055C835.48 602.786 833.09 605 830.143 605L679.337 605C676.39 605 674 602.786 674 600.055L674 460.328C674 457.597 676.39 455.383 679.337 455.383L806.776 455.383C811.532 455.383 813.914 450.056 810.555 446.937L675.566 321.879C674.565 320.952 674 319.695 674 318.378L674 120.786C674 116.373 679.749 114.166 683.116 117.285L1075.4 480.72C1078.76 483.84 1084.51 481.633 1084.51 477.219L1084.51 260.506C1084.51 259.197 1085.08 257.933 1086.08 257.005L1226.65 107.873C1235.83 98.1274 1245.64 108.392 1246 120.786L1246 600.048C1246 602.778 1243.62 604.993 1240.67 604.993L1089.85 604.993C1086.9 604.993 1084.51 602.786 1084.51 600.055Z" fill="url(#paint0_linear_7_2)"/>
</g>
<g style="mix-blend-mode:overlay">
<path d="M574.247 805H566.663V757.768C566.663 754.312 566.663 750.76 566.759 748.168H566.279C565.991 750.76 565.319 754.216 556.199 805H552.167C542.855 754.216 542.279 750.664 541.991 748.168H541.511C541.607 750.76 541.607 754.312 541.607 757.768V805H534.023V732.328H547.655C552.743 765.64 553.511 770.344 553.895 774.664H554.375C554.663 770.344 555.527 765.64 560.711 732.328H574.247V805ZM602.895 805H580.527V732.328H602.991V740.968H588.975V763.816H602.799V772.072H588.975V795.976H602.895V805ZM636.202 805H631.786C619.018 762.76 617.77 758.344 616.81 754.408H616.33C616.426 758.44 616.426 762.952 616.426 768.232V805H608.65V732.328H618.442C626.986 764.584 627.562 766.792 627.946 769.096H628.426C628.33 766.696 628.33 764.488 628.33 760.168V732.328H636.202V805ZM657.861 805H649.317V740.968H640.293V732.328H666.789V740.968H657.861V805ZM671.128 800.296C669.304 795.88 668.632 791.464 668.632 768.616C668.632 745.768 669.304 741.544 671.128 737.032C672.856 732.616 675.832 731.08 682.36 731.08C688.792 731.08 691.864 732.616 693.592 737.032C695.32 741.544 696.088 745.768 696.088 768.616C696.088 791.464 695.32 795.88 693.592 800.296C691.864 804.808 688.792 806.248 682.36 806.248C675.832 806.248 672.856 804.808 671.128 800.296ZM686.488 794.152C687.256 790.984 687.64 788.584 687.64 768.424C687.64 748.168 687.352 745.768 686.584 742.696C686.008 740.392 684.856 739.528 682.36 739.528C679.864 739.528 678.808 740.392 678.232 742.6C677.464 745.672 677.08 748.168 677.08 768.424C677.08 788.584 677.368 791.08 678.232 794.152C678.808 796.456 679.864 797.224 682.36 797.224C684.856 797.224 685.912 796.456 686.488 794.152ZM729.399 805H720.663C719.991 803.464 719.703 802.312 719.223 793.672C718.935 788.872 718.743 783.784 718.071 778.984C717.495 775.048 716.631 774.28 714.039 774.28H710.007V805H701.559V732.328H716.919C721.335 732.328 723.447 733.384 725.271 735.688C727.671 738.76 728.439 742.888 728.439 751.912C728.439 761.032 727.863 764.104 726.807 766.696C725.943 768.808 724.695 769.96 723.255 770.536V771.016C724.503 771.592 725.943 773.128 726.423 777.064C727.287 783.688 727.863 790.504 728.247 797.896C728.439 800.872 728.823 802.696 729.399 804.616V805ZM710.007 766.504H713.847C716.151 766.504 717.687 766.024 718.647 763.912C719.607 761.896 719.799 760.36 719.799 751.912C719.799 745.48 719.607 743.944 718.743 742.6C717.879 741.256 716.919 740.776 715.383 740.776H710.007V766.504ZM743.109 805H734.373V732.328H743.109V805ZM777.015 805H772.599C759.831 762.76 758.583 758.344 757.623 754.408H757.143C757.239 758.44 757.239 762.952 757.239 768.232V805H749.463V732.328H759.255C767.799 764.584 768.375 766.792 768.759 769.096H769.239C769.143 766.696 769.143 764.488 769.143 760.168V732.328H777.015V805ZM801.649 772.936H794.353V764.68H809.425C809.521 767.08 809.617 770.92 809.617 776.584C809.617 792.52 808.753 796.456 807.217 800.296C805.489 804.808 802.417 806.248 795.985 806.248C789.457 806.248 786.577 804.808 784.753 800.296C783.025 795.88 782.257 791.464 782.257 768.04C782.257 745.576 783.025 741.256 784.657 737.32C786.577 732.52 789.649 731.08 795.985 731.08C803.089 731.08 805.969 733.384 807.409 737.32C809.041 741.64 809.233 746.44 809.233 750.76C809.233 752.68 809.233 753.448 809.137 754.504H801.073C801.169 753.64 801.169 752.68 801.169 750.76C801.169 748.36 800.977 745.864 800.401 742.984C799.921 740.776 798.865 739.528 795.985 739.528C793.393 739.528 792.337 740.392 791.665 743.08C790.993 745.576 790.513 748.936 790.513 767.944C790.513 788.008 791.089 791.08 791.857 794.056C792.529 796.456 793.297 797.32 796.177 797.32C798.673 797.32 799.825 796.456 800.497 794.152C801.265 791.272 801.745 787.72 801.745 778.504C801.745 775.624 801.745 774.088 801.649 772.936ZM855.84 805H847.104L845.472 785.224H837.696L836.064 805H827.52L834.72 732.328H849.12L855.84 805ZM845.088 776.872L842.784 749.608C842.496 746.632 842.208 743.848 842.016 740.968H841.344C841.152 743.848 840.864 746.632 840.576 749.608L838.08 776.872H845.088ZM859.233 780.712H866.529C866.337 782.056 866.241 783.784 866.241 786.472C866.241 792.136 866.433 793.96 867.297 795.688C868.065 797.128 868.929 797.608 871.041 797.608C873.537 797.608 874.401 797.128 875.265 795.496C876.129 793.672 876.321 791.56 876.321 785.128C876.321 780.136 876.225 779.08 875.745 777.16C875.265 775.432 874.593 774.76 872.673 773.416C869.505 771.208 864.705 768.424 862.113 765.832C859.521 763.24 858.657 760.264 858.657 748.072C858.657 740.008 859.521 736.648 861.825 734.056C863.841 731.848 866.145 731.08 871.137 731.08C876.993 731.08 879.681 732.424 881.313 734.632C883.041 737.032 883.617 740.2 883.617 746.632C883.617 750.76 883.425 753.256 883.041 754.888H875.841C876.033 753.64 876.129 751.912 876.129 748.936C876.129 744.136 875.841 742.12 874.785 740.68C874.017 739.624 873.153 739.432 871.137 739.432C869.121 739.432 868.353 739.72 867.585 740.872C866.721 742.312 866.433 744.136 866.433 749.224C866.433 755.176 866.433 756.136 867.009 757.96C867.585 759.592 867.969 760.072 869.985 761.608C872.289 763.432 875.841 765.16 878.817 767.272C881.121 768.904 881.985 769.672 882.945 771.688C884.001 773.992 884.289 775.624 884.289 785.224C884.289 795.208 883.329 798.664 881.697 801.736C880.161 804.616 876.993 806.248 870.945 806.248C865.761 806.248 862.977 805.288 861.153 802.024C859.521 799.144 858.753 796.456 858.753 788.296C858.753 784.936 859.041 782.44 859.233 780.712ZM898.069 805H889.621V732.328H904.693C913.813 732.328 916.309 737.896 916.309 756.52C916.309 774.856 913.909 781.48 904.597 781.48H898.069V805ZM898.069 773.032H903.253C906.229 773.032 907.765 769.576 907.765 756.328C907.765 743.176 906.133 740.872 903.157 740.872H898.069V773.032ZM930.328 805H921.592V732.328H930.328V805ZM964.617 805H955.881C955.209 803.464 954.921 802.312 954.441 793.672C954.153 788.872 953.961 783.784 953.289 778.984C952.713 775.048 951.849 774.28 949.257 774.28H945.225V805H936.777V732.328H952.137C956.553 732.328 958.665 733.384 960.489 735.688C962.889 738.76 963.657 742.888 963.657 751.912C963.657 761.032 963.081 764.104 962.025 766.696C961.161 768.808 959.913 769.96 958.473 770.536V771.016C959.721 771.592 961.161 773.128 961.641 777.064C962.505 783.688 963.081 790.504 963.465 797.896C963.657 800.872 964.041 802.696 964.617 804.616V805ZM945.225 766.504H949.065C951.369 766.504 952.905 766.024 953.865 763.912C954.825 761.896 955.017 760.36 955.017 751.912C955.017 745.48 954.825 743.944 953.961 742.6C953.097 741.256 952.137 740.776 950.601 740.776H945.225V766.504ZM978.328 805H969.592V732.328H978.328V805ZM1012.23 805H1007.82C995.049 762.76 993.801 758.344 992.841 754.408H992.361C992.457 758.44 992.457 762.952 992.457 768.232V805H984.681V732.328H994.473C1003.02 764.584 1003.59 766.792 1003.98 769.096H1004.46C1004.36 766.696 1004.36 764.488 1004.36 760.168V732.328H1012.23V805ZM1036.87 772.936H1029.57V764.68H1044.64C1044.74 767.08 1044.84 770.92 1044.84 776.584C1044.84 792.52 1043.97 796.456 1042.44 800.296C1040.71 804.808 1037.64 806.248 1031.2 806.248C1024.68 806.248 1021.8 804.808 1019.97 800.296C1018.24 795.88 1017.48 791.464 1017.48 768.04C1017.48 745.576 1018.24 741.256 1019.88 737.32C1021.8 732.52 1024.87 731.08 1031.2 731.08C1038.31 731.08 1041.19 733.384 1042.63 737.32C1044.26 741.64 1044.45 746.44 1044.45 750.76C1044.45 752.68 1044.45 753.448 1044.36 754.504H1036.29C1036.39 753.64 1036.39 752.68 1036.39 750.76C1036.39 748.36 1036.2 745.864 1035.62 742.984C1035.14 740.776 1034.08 739.528 1031.2 739.528C1028.61 739.528 1027.56 740.392 1026.88 743.08C1026.21 745.576 1025.73 748.936 1025.73 767.944C1025.73 788.008 1026.31 791.08 1027.08 794.056C1027.75 796.456 1028.52 797.32 1031.4 797.32C1033.89 797.32 1035.04 796.456 1035.72 794.152C1036.48 791.272 1036.96 787.72 1036.96 778.504C1036.96 775.624 1036.96 774.088 1036.87 772.936ZM1078.48 805H1064.37V732.328H1078.48C1084.92 732.328 1087.89 733.768 1089.81 738.088C1091.64 742.408 1092.21 746.632 1092.21 768.616C1092.21 791.368 1091.54 795.112 1089.81 799.336C1088.08 803.656 1085.11 805 1078.48 805ZM1072.82 796.072H1078.29C1080.88 796.072 1081.84 795.4 1082.52 793.192C1083.38 790.312 1083.57 787.432 1083.57 768.52C1083.57 750.184 1083.48 746.824 1082.52 743.944C1081.75 741.736 1080.69 740.968 1078.29 740.968H1072.82V796.072ZM1120.02 805H1097.65V732.328H1120.12V740.968H1106.1V763.816H1119.92V772.072H1106.1V795.976H1120.02V805ZM1145.26 805H1131.82L1124.24 732.328H1133.36C1137.78 784.648 1138.26 789.64 1138.45 794.44H1139.12C1139.31 789.64 1139.89 784.648 1144.21 732.328H1153.14L1145.26 805ZM1180.3 805H1157.93V732.328H1180.4V740.968H1166.38V763.816H1180.21V772.072H1166.38V795.976H1180.3V805ZM1207.56 805H1186.15V732.328H1194.6V795.976H1207.56V805ZM1212.16 800.296C1210.34 795.88 1209.66 791.464 1209.66 768.616C1209.66 745.768 1210.34 741.544 1212.16 737.032C1213.89 732.616 1216.86 731.08 1223.39 731.08C1229.82 731.08 1232.9 732.616 1234.62 737.032C1236.35 741.544 1237.12 745.768 1237.12 768.616C1237.12 791.464 1236.35 795.88 1234.62 800.296C1232.9 804.808 1229.82 806.248 1223.39 806.248C1216.86 806.248 1213.89 804.808 1212.16 800.296ZM1227.52 794.152C1228.29 790.984 1228.67 788.584 1228.67 768.424C1228.67 748.168 1228.38 745.768 1227.62 742.696C1227.04 740.392 1225.89 739.528 1223.39 739.528C1220.9 739.528 1219.84 740.392 1219.26 742.6C1218.5 745.672 1218.11 748.168 1218.11 768.424C1218.11 788.584 1218.4 791.08 1219.26 794.152C1219.84 796.456 1220.9 797.224 1223.39 797.224C1225.89 797.224 1226.94 796.456 1227.52 794.152ZM1251.04 805H1242.59V732.328H1257.66C1266.78 732.328 1269.28 737.896 1269.28 756.52C1269.28 774.856 1266.88 781.48 1257.57 781.48H1251.04V805ZM1251.04 773.032H1256.22C1259.2 773.032 1260.73 769.576 1260.73 756.328C1260.73 743.176 1259.1 740.872 1256.13 740.872H1251.04V773.032ZM1296.83 805H1274.46V732.328H1296.93V740.968H1282.91V763.816H1296.74V772.072H1282.91V795.976H1296.83V805ZM1330.52 805H1321.79C1321.12 803.464 1320.83 802.312 1320.35 793.672C1320.06 788.872 1319.87 783.784 1319.2 778.984C1318.62 775.048 1317.76 774.28 1315.16 774.28H1311.13V805H1302.68V732.328H1318.04C1322.46 732.328 1324.57 733.384 1326.4 735.688C1328.8 738.76 1329.56 742.888 1329.56 751.912C1329.56 761.032 1328.99 764.104 1327.93 766.696C1327.07 768.808 1325.82 769.96 1324.38 770.536V771.016C1325.63 771.592 1327.07 773.128 1327.55 777.064C1328.41 783.688 1328.99 790.504 1329.37 797.896C1329.56 800.872 1329.95 802.696 1330.52 804.616V805ZM1311.13 766.504H1314.97C1317.28 766.504 1318.81 766.024 1319.77 763.912C1320.73 761.896 1320.92 760.36 1320.92 751.912C1320.92 745.48 1320.73 743.944 1319.87 742.6C1319 741.256 1318.04 740.776 1316.51 740.776H1311.13V766.504ZM1334.17 780.712H1341.47C1341.27 782.056 1341.18 783.784 1341.18 786.472C1341.18 792.136 1341.37 793.96 1342.23 795.688C1343 797.128 1343.87 797.608 1345.98 797.608C1348.47 797.608 1349.34 797.128 1350.2 795.496C1351.07 793.672 1351.26 791.56 1351.26 785.128C1351.26 780.136 1351.16 779.08 1350.68 777.16C1350.2 775.432 1349.53 774.76 1347.61 773.416C1344.44 771.208 1339.64 768.424 1337.05 765.832C1334.46 763.24 1333.59 760.264 1333.59 748.072C1333.59 740.008 1334.46 736.648 1336.76 734.056C1338.78 731.848 1341.08 731.08 1346.07 731.08C1351.93 731.08 1354.62 732.424 1356.25 734.632C1357.98 737.032 1358.55 740.2 1358.55 746.632C1358.55 750.76 1358.36 753.256 1357.98 754.888H1350.78C1350.97 753.64 1351.07 751.912 1351.07 748.936C1351.07 744.136 1350.78 742.12 1349.72 740.68C1348.95 739.624 1348.09 739.432 1346.07 739.432C1344.06 739.432 1343.29 739.72 1342.52 740.872C1341.66 742.312 1341.37 744.136 1341.37 749.224C1341.37 755.176 1341.37 756.136 1341.95 757.96C1342.52 759.592 1342.91 760.072 1344.92 761.608C1347.23 763.432 1350.78 765.16 1353.75 767.272C1356.06 768.904 1356.92 769.672 1357.88 771.688C1358.94 773.992 1359.23 775.624 1359.23 785.224C1359.23 795.208 1358.27 798.664 1356.63 801.736C1355.1 804.616 1351.93 806.248 1345.88 806.248C1340.7 806.248 1337.91 805.288 1336.09 802.024C1334.46 799.144 1333.69 796.456 1333.69 788.296C1333.69 784.936 1333.98 782.44 1334.17 780.712ZM1367.19 818.632H1363.16V818.152L1365.94 804.616L1365.75 804.04H1362.87V792.904H1371.51V804.616L1367.19 818.632ZM570.505 920H548.137V847.328H570.601V855.968H556.585V878.816H570.409V887.072H556.585V910.976H570.505V920ZM616.388 920H608.804V872.768C608.804 869.312 608.804 865.76 608.9 863.168H608.42C608.132 865.76 607.46 869.216 598.34 920H594.308C584.996 869.216 584.42 865.664 584.132 863.168H583.652C583.748 865.76 583.748 869.312 583.748 872.768V920H576.164V847.328H589.796C594.884 880.64 595.652 885.344 596.036 889.664H596.516C596.804 885.344 597.668 880.64 602.852 847.328H616.388V920ZM631.116 920H622.668V847.328H637.74C646.86 847.328 649.356 852.896 649.356 871.52C649.356 889.856 646.956 896.48 637.644 896.48H631.116V920ZM631.116 888.032H636.3C639.276 888.032 640.812 884.576 640.812 871.328C640.812 858.176 639.18 855.872 636.204 855.872H631.116V888.032ZM656.175 915.296C654.351 910.88 653.679 906.464 653.679 883.616C653.679 860.768 654.351 856.544 656.175 852.032C657.903 847.616 660.879 846.08 667.407 846.08C673.839 846.08 676.911 847.616 678.639 852.032C680.367 856.544 681.135 860.768 681.135 883.616C681.135 906.464 680.367 910.88 678.639 915.296C676.911 919.808 673.839 921.248 667.407 921.248C660.879 921.248 657.903 919.808 656.175 915.296ZM671.535 909.152C672.303 905.984 672.687 903.584 672.687 883.424C672.687 863.168 672.399 860.768 671.631 857.696C671.055 855.392 669.903 854.528 667.407 854.528C664.911 854.528 663.855 855.392 663.279 857.6C662.511 860.672 662.127 863.168 662.127 883.424C662.127 903.584 662.415 906.08 663.279 909.152C663.855 911.456 664.911 912.224 667.407 912.224C669.903 912.224 670.959 911.456 671.535 909.152ZM724.845 920H712.461C708.237 874.208 707.757 870.08 707.661 865.856H706.989C706.893 870.08 706.413 874.208 701.997 920H689.613L683.853 847.328H692.397C695.757 900.128 696.141 904.064 696.237 908.096H697.005C697.197 904.064 697.677 900.128 703.149 847.328H711.597C717.165 900.128 717.645 904.064 717.837 908.096H718.605C718.701 904.064 718.893 900.128 722.349 847.328H730.509L724.845 920ZM757.817 920H735.449V847.328H757.913V855.968H743.897V878.816H757.721V887.072H743.897V910.976H757.817V920ZM791.508 920H782.772C782.1 918.464 781.812 917.312 781.332 908.672C781.044 903.872 780.852 898.784 780.18 893.984C779.604 890.048 778.74 889.28 776.148 889.28H772.116V920H763.668V847.328H779.028C783.444 847.328 785.556 848.384 787.38 850.688C789.78 853.76 790.548 857.888 790.548 866.912C790.548 876.032 789.972 879.104 788.916 881.696C788.052 883.808 786.804 884.96 785.364 885.536V886.016C786.612 886.592 788.052 888.128 788.532 892.064C789.396 898.688 789.972 905.504 790.356 912.896C790.548 915.872 790.932 917.696 791.508 919.616V920ZM772.116 881.504H775.956C778.26 881.504 779.796 881.024 780.756 878.912C781.716 876.896 781.908 875.36 781.908 866.912C781.908 860.48 781.716 858.944 780.852 857.6C779.988 856.256 779.028 855.776 777.492 855.776H772.116V881.504ZM805.219 920H796.483V847.328H805.219V920ZM839.124 920H834.708C821.94 877.76 820.692 873.344 819.732 869.408H819.252C819.348 873.44 819.348 877.952 819.348 883.232V920H811.572V847.328H821.364C829.908 879.584 830.484 881.792 830.868 884.096H831.348C831.252 881.696 831.252 879.488 831.252 875.168V847.328H839.124V920ZM863.759 887.936H856.463V879.68H871.535C871.631 882.08 871.727 885.92 871.727 891.584C871.727 907.52 870.863 911.456 869.327 915.296C867.599 919.808 864.527 921.248 858.095 921.248C851.567 921.248 848.687 919.808 846.863 915.296C845.135 910.88 844.367 906.464 844.367 883.04C844.367 860.576 845.135 856.256 846.767 852.32C848.687 847.52 851.759 846.08 858.095 846.08C865.199 846.08 868.079 848.384 869.519 852.32C871.151 856.64 871.343 861.44 871.343 865.76C871.343 867.68 871.343 868.448 871.247 869.504H863.183C863.279 868.64 863.279 867.68 863.279 865.76C863.279 863.36 863.087 860.864 862.511 857.984C862.031 855.776 860.975 854.528 858.095 854.528C855.503 854.528 854.447 855.392 853.775 858.08C853.103 860.576 852.623 863.936 852.623 882.944C852.623 903.008 853.199 906.08 853.967 909.056C854.639 911.456 855.407 912.32 858.287 912.32C860.783 912.32 861.935 911.456 862.607 909.152C863.375 906.272 863.855 902.72 863.855 893.504C863.855 890.624 863.855 889.088 863.759 887.936ZM912.67 920H891.262V847.328H899.71V910.976H912.67V920ZM925.781 920H917.045V847.328H925.781V920ZM940.679 920H932.23V847.328H954.406V855.968H940.679V879.68H954.119V888.032H940.679V920ZM981.505 920H959.137V847.328H981.601V855.968H967.585V878.816H981.409V887.072H967.585V910.976H981.505V920ZM1008.76 920H987.355V847.328H995.804V910.976H1008.76V920ZM1013.36 915.296C1011.54 910.88 1010.87 906.464 1010.87 883.616C1010.87 860.768 1011.54 856.544 1013.36 852.032C1015.09 847.616 1018.07 846.08 1024.59 846.08C1031.03 846.08 1034.1 847.616 1035.83 852.032C1037.55 856.544 1038.32 860.768 1038.32 883.616C1038.32 906.464 1037.55 910.88 1035.83 915.296C1034.1 919.808 1031.03 921.248 1024.59 921.248C1018.07 921.248 1015.09 919.808 1013.36 915.296ZM1028.72 909.152C1029.49 905.984 1029.87 903.584 1029.87 883.424C1029.87 863.168 1029.59 860.768 1028.82 857.696C1028.24 855.392 1027.09 854.528 1024.59 854.528C1022.1 854.528 1021.04 855.392 1020.47 857.6C1019.7 860.672 1019.31 863.168 1019.31 883.424C1019.31 903.584 1019.6 906.08 1020.47 909.152C1021.04 911.456 1022.1 912.224 1024.59 912.224C1027.09 912.224 1028.15 911.456 1028.72 909.152ZM1071.25 920H1066.83C1054.07 877.76 1052.82 873.344 1051.86 869.408H1051.38C1051.47 873.44 1051.47 877.952 1051.47 883.232V920H1043.7V847.328H1053.49C1062.03 879.584 1062.61 881.792 1062.99 884.096H1063.47C1063.38 881.696 1063.38 879.488 1063.38 875.168V847.328H1071.25V920ZM1095.88 887.936H1088.59V879.68H1103.66C1103.76 882.08 1103.85 885.92 1103.85 891.584C1103.85 907.52 1102.99 911.456 1101.45 915.296C1099.72 919.808 1096.65 921.248 1090.22 921.248C1083.69 921.248 1080.81 919.808 1078.99 915.296C1077.26 910.88 1076.49 906.464 1076.49 883.04C1076.49 860.576 1077.26 856.256 1078.89 852.32C1080.81 847.52 1083.88 846.08 1090.22 846.08C1097.32 846.08 1100.2 848.384 1101.64 852.32C1103.28 856.64 1103.47 861.44 1103.47 865.76C1103.47 867.68 1103.47 868.448 1103.37 869.504H1095.31C1095.4 868.64 1095.4 867.68 1095.4 865.76C1095.4 863.36 1095.21 860.864 1094.64 857.984C1094.16 855.776 1093.1 854.528 1090.22 854.528C1087.63 854.528 1086.57 855.392 1085.9 858.08C1085.23 860.576 1084.75 863.936 1084.75 882.944C1084.75 903.008 1085.32 906.08 1086.09 909.056C1086.76 911.456 1087.53 912.32 1090.41 912.32C1092.91 912.32 1094.06 911.456 1094.73 909.152C1095.5 906.272 1095.98 902.72 1095.98 893.504C1095.98 890.624 1095.98 889.088 1095.88 887.936ZM1144.79 920H1123.39V847.328H1131.83V910.976H1144.79V920ZM1171.44 920H1149.07V847.328H1171.54V855.968H1157.52V878.816H1171.35V887.072H1157.52V910.976H1171.44V920ZM1203.98 920H1195.25L1193.61 900.224H1185.84L1184.21 920H1175.66L1182.86 847.328H1197.26L1203.98 920ZM1193.23 891.872L1190.93 864.608C1190.64 861.632 1190.35 858.848 1190.16 855.968H1189.49C1189.29 858.848 1189.01 861.632 1188.72 864.608L1186.22 891.872H1193.23ZM1236.54 920H1227.8C1227.13 918.464 1226.84 917.312 1226.36 908.672C1226.08 903.872 1225.88 898.784 1225.21 893.984C1224.64 890.048 1223.77 889.28 1221.18 889.28H1217.15V920H1208.7V847.328H1224.06C1228.48 847.328 1230.59 848.384 1232.41 850.688C1234.81 853.76 1235.58 857.888 1235.58 866.912C1235.58 876.032 1235 879.104 1233.95 881.696C1233.08 883.808 1231.84 884.96 1230.4 885.536V886.016C1231.64 886.592 1233.08 888.128 1233.56 892.064C1234.43 898.688 1235 905.504 1235.39 912.896C1235.58 915.872 1235.96 917.696 1236.54 919.616V920ZM1217.15 881.504H1220.99C1223.29 881.504 1224.83 881.024 1225.79 878.912C1226.75 876.896 1226.94 875.36 1226.94 866.912C1226.94 860.48 1226.75 858.944 1225.88 857.6C1225.02 856.256 1224.06 855.776 1222.52 855.776H1217.15V881.504ZM1268.87 920H1264.46C1251.69 877.76 1250.44 873.344 1249.48 869.408H1249C1249.1 873.44 1249.1 877.952 1249.1 883.232V920H1241.32V847.328H1251.11C1259.66 879.584 1260.23 881.792 1260.62 884.096H1261.1C1261 881.696 1261 879.488 1261 875.168V847.328H1268.87V920ZM1297.35 920H1274.98V847.328H1297.44V855.968H1283.43V878.816H1297.25V887.072H1283.43V910.976H1297.35V920ZM1331.04 920H1322.3C1321.63 918.464 1321.34 917.312 1320.86 908.672C1320.58 903.872 1320.38 898.784 1319.71 893.984C1319.14 890.048 1318.27 889.28 1315.68 889.28H1311.65V920H1303.2V847.328H1318.56C1322.98 847.328 1325.09 848.384 1326.91 850.688C1329.31 853.76 1330.08 857.888 1330.08 866.912C1330.08 876.032 1329.5 879.104 1328.45 881.696C1327.58 883.808 1326.34 884.96 1324.9 885.536V886.016C1326.14 886.592 1327.58 888.128 1328.06 892.064C1328.93 898.688 1329.5 905.504 1329.89 912.896C1330.08 915.872 1330.46 917.696 1331.04 919.616V920ZM1311.65 881.504H1315.49C1317.79 881.504 1319.33 881.024 1320.29 878.912C1321.25 876.896 1321.44 875.36 1321.44 866.912C1321.44 860.48 1321.25 858.944 1320.38 857.6C1319.52 856.256 1318.56 855.776 1317.02 855.776H1311.65V881.504ZM1334.69 895.712H1341.98C1341.79 897.056 1341.69 898.784 1341.69 901.472C1341.69 907.136 1341.89 908.96 1342.75 910.688C1343.52 912.128 1344.38 912.608 1346.49 912.608C1348.99 912.608 1349.85 912.128 1350.72 910.496C1351.58 908.672 1351.77 906.56 1351.77 900.128C1351.77 895.136 1351.68 894.08 1351.2 892.16C1350.72 890.432 1350.05 889.76 1348.13 888.416C1344.96 886.208 1340.16 883.424 1337.57 880.832C1334.97 878.24 1334.11 875.264 1334.11 863.072C1334.11 855.008 1334.97 851.648 1337.28 849.056C1339.29 846.848 1341.6 846.08 1346.59 846.08C1352.45 846.08 1355.13 847.424 1356.77 849.632C1358.49 852.032 1359.07 855.2 1359.07 861.632C1359.07 865.76 1358.88 868.256 1358.49 869.888H1351.29C1351.49 868.64 1351.58 866.912 1351.58 863.936C1351.58 859.136 1351.29 857.12 1350.24 855.68C1349.47 854.624 1348.61 854.432 1346.59 854.432C1344.57 854.432 1343.81 854.72 1343.04 855.872C1342.17 857.312 1341.89 859.136 1341.89 864.224C1341.89 870.176 1341.89 871.136 1342.46 872.96C1343.04 874.592 1343.42 875.072 1345.44 876.608C1347.74 878.432 1351.29 880.16 1354.27 882.272C1356.57 883.904 1357.44 884.672 1358.4 886.688C1359.45 888.992 1359.74 890.624 1359.74 900.224C1359.74 910.208 1358.78 913.664 1357.15 916.736C1355.61 919.616 1352.45 921.248 1346.4 921.248C1341.21 921.248 1338.43 920.288 1336.61 917.024C1334.97 914.144 1334.21 911.456 1334.21 903.296C1334.21 899.936 1334.49 897.44 1334.69 895.712ZM1371.83 920H1363.39V907.904H1371.83V920Z" fill="white"/>
</g>
</g>
<defs>
<filter id="filter0_f_7_2" x="-607.132" y="-851.771" width="2700.26" height="2497.88" filterUnits="userSpaceOnUse" color-interpolation-filters="sRGB">
<feFlood flood-opacity="0" result="BackgroundImageFix"/>
<feBlend mode="normal" in="SourceGraphic" in2="BackgroundImageFix" result="shape"/>
<feGaussianBlur stdDeviation="500" result="effect1_foregroundBlur_7_2"/>
</filter>
<filter id="filter1_f_7_2" x="-76.9199" y="-538.801" width="2733.99" height="2630.79" filterUnits="userSpaceOnUse" color-interpolation-filters="sRGB">
<feFlood flood-opacity="0" result="BackgroundImageFix"/>
<feBlend mode="normal" in="SourceGraphic" in2="BackgroundImageFix" result="shape"/>
<feGaussianBlur stdDeviation="500" result="effect1_foregroundBlur_7_2"/>
</filter>
<linearGradient id="paint0_linear_7_2" x1="718.358" y1="125.534" x2="1411.72" y2="413.122" gradientUnits="userSpaceOnUse">
<stop stop-color="white"/>
<stop offset="1" stop-color="white" stop-opacity="0"/>
</linearGradient>
<clipPath id="clip0_7_2">
<rect width="1920" height="1080" fill="white"/>
</clipPath>
</defs>
</svg>
